<svg width="33" height="32" viewBox="0 0 33 32" fill="none" xmlns="http://www.w3.org/2000/svg">
<path d="M29.8333 20C29.8333 25.16 25.66 29.3333 20.5 29.3333L21.9 27" stroke="#6484F6" stroke-width="1.5" stroke-linecap="round" stroke-linejoin="round"/>
<path d="M3.16675 12C3.16675 6.83996 7.34008 2.66663 12.5001 2.66663L11.1001 4.99996" stroke="#6484F6" stroke-width="1.5" stroke-linecap="round" stroke-linejoin="round"/>
<path d="M29.8333 5.59996V5.74663C29.8333 6.11996 29.54 6.41329 29.1667 6.41329H17.1667C16.7933 6.41329 16.5 6.11996 16.5 5.74663V5.59996C16.5 3.25329 17.0867 2.66663 19.46 2.66663H26.8733C29.2467 2.66663 29.8333 3.25329 29.8333 5.59996Z" fill="#6484F6"/>
<path d="M17.1667 7.7467C16.7933 7.7467 16.5 8.04004 16.5 8.41337V9.7467V11.0667C16.5 13.4134 17.0867 14 19.46 14H26.8733C29.2467 14 29.8333 13.4134 29.8333 11.0667V9.7467V8.41337C29.8333 8.04004 29.54 7.7467 29.1667 7.7467H17.1667Z" fill="#6484F6"/>
<path d="M16.5001 20.9333V21.08C16.5001 21.4533 16.2067 21.7467 15.8334 21.7467H3.83341C3.46008 21.7467 3.16675 21.4533 3.16675 21.08V20.9333C3.16675 18.5867 3.75341 18 6.12675 18H13.5401C15.9134 18 16.5001 18.5867 16.5001 20.9333Z" fill="#6484F6"/>
<path d="M3.83341 23.08C3.46008 23.08 3.16675 23.3733 3.16675 23.7466V25.08V26.4C3.16675 28.7466 3.75341 29.3333 6.12675 29.3333H13.5401C15.9134 29.3333 16.5001 28.7466 16.5001 26.4V25.08V23.7466C16.5001 23.3733 16.2067 23.08 15.8334 23.08H3.83341Z" fill="#6484F6"/>
</svg>
