<svg width="33" height="32" viewBox="0 0 33 32" fill="none" xmlns="http://www.w3.org/2000/svg">
<path d="M22.8333 4.66663H9.49992C5.49992 4.66663 2.83325 6.66663 2.83325 11.3333V20.6666C2.83325 25.3333 5.49992 27.3333 9.49992 27.3333H22.8333C26.8333 27.3333 29.4999 25.3333 29.4999 20.6666V11.3333C29.4999 6.66663 26.8333 4.66663 22.8333 4.66663ZM5.16659 11.3333C5.16659 8.94663 7.11325 6.99996 9.49992 6.99996H11.4999C12.0466 6.99996 12.4999 7.45329 12.4999 7.99996C12.4999 8.54663 12.0466 8.99996 11.4999 8.99996H9.49992C8.21992 8.99996 7.16659 10.0533 7.16659 11.3333V13.3333C7.16659 13.88 6.71325 14.3333 6.16659 14.3333C5.61992 14.3333 5.16659 13.88 5.16659 13.3333V11.3333ZM11.4999 25H9.49992C7.11325 25 5.16659 23.0533 5.16659 20.6666V18.6666C5.16659 18.12 5.61992 17.6666 6.16659 17.6666C6.71325 17.6666 7.16659 18.12 7.16659 18.6666V20.6666C7.16659 21.9466 8.21992 23 9.49992 23H11.4999C12.0466 23 12.4999 23.4533 12.4999 24C12.4999 24.5466 12.0466 25 11.4999 25ZM16.1666 20C13.9533 20 12.1666 18.2133 12.1666 16C12.1666 13.7866 13.9533 12 16.1666 12C18.3799 12 20.1666 13.7866 20.1666 16C20.1666 18.2133 18.3799 20 16.1666 20ZM27.1666 20.6666C27.1666 23.0533 25.2199 25 22.8333 25H20.8333C20.2866 25 19.8333 24.5466 19.8333 24C19.8333 23.4533 20.2866 23 20.8333 23H22.8333C24.1133 23 25.1666 21.9466 25.1666 20.6666V18.6666C25.1666 18.12 25.6199 17.6666 26.1666 17.6666C26.7133 17.6666 27.1666 18.12 27.1666 18.6666V20.6666ZM27.1666 13.3333C27.1666 13.88 26.7133 14.3333 26.1666 14.3333C25.6199 14.3333 25.1666 13.88 25.1666 13.3333V11.3333C25.1666 10.0533 24.1133 8.99996 22.8333 8.99996H20.8333C20.2866 8.99996 19.8333 8.54663 19.8333 7.99996C19.8333 7.45329 20.2866 6.99996 20.8333 6.99996H22.8333C25.2199 6.99996 27.1666 8.94663 27.1666 11.3333V13.3333Z" fill="#7959F5"/>
</svg>
