<svg width="33" height="32" viewBox="0 0 33 32" fill="none" xmlns="http://www.w3.org/2000/svg">
<path d="M14.5 13.3734C14.5 14.0934 14.7 14.2 15.1533 14.36L15.8333 14.6V12.3334H15.4333C14.9267 12.3334 14.5 12.8 14.5 13.3734Z" fill="#F4A84F"/>
<path d="M17.8333 19.6667H18.2333C18.7533 19.6667 19.1666 19.2 19.1666 18.6267C19.1666 17.9067 18.9666 17.8 18.5133 17.64L17.8333 17.4V19.6667Z" fill="#F4A84F"/>
<path d="M26.94 7.30663L24.2067 10.04C24.0067 10.24 23.7533 10.3333 23.5 10.3333C23.2467 10.3333 22.9933 10.24 22.7933 10.04C22.4067 9.65329 22.4067 9.01329 22.7933 8.62663L25.5267 5.89329C23.18 3.89329 20.1533 2.66663 16.8333 2.66663C9.47333 2.66663 3.5 8.63996 3.5 16C3.5 23.36 9.47333 29.3333 16.8333 29.3333C24.1933 29.3333 30.1667 23.36 30.1667 16C30.1667 12.68 28.94 9.65329 26.94 7.30663ZM19.1667 15.76C20.02 16.0666 21.1667 16.68 21.1667 18.64C21.1667 20.3066 19.8467 21.68 18.2333 21.68H17.8333V22.0133C17.8333 22.56 17.38 23.0133 16.8333 23.0133C16.2867 23.0133 15.8333 22.56 15.8333 22.0133V21.68H15.7267C13.9533 21.68 12.5 20.1866 12.5 18.3466C12.5 17.7866 12.9533 17.3333 13.5 17.3333C14.0467 17.3333 14.5 17.7866 14.5 18.3333C14.5 19.0666 15.0467 19.6666 15.7267 19.6666H15.8333V16.7066L14.5 16.24C13.6467 15.9333 12.5 15.32 12.5 13.36C12.5 11.6933 13.82 10.32 15.4333 10.32H15.8333V9.99996C15.8333 9.45329 16.2867 8.99996 16.8333 8.99996C17.38 8.99996 17.8333 9.45329 17.8333 9.99996V10.3333H17.94C19.7133 10.3333 21.1667 11.8266 21.1667 13.6666C21.1667 14.2133 20.7133 14.6666 20.1667 14.6666C19.62 14.6666 19.1667 14.2133 19.1667 13.6666C19.1667 12.9333 18.62 12.3333 17.94 12.3333H17.8333V15.2933L19.1667 15.76Z" fill="#F4A84F"/>
<path d="M31.0866 2.27996C30.9799 2.03996 30.7933 1.83996 30.5399 1.73329C30.4199 1.69329 30.2999 1.66663 30.1666 1.66663H24.8333C24.2866 1.66663 23.8333 2.11996 23.8333 2.66663C23.8333 3.21329 24.2866 3.66663 24.8333 3.66663H27.7533L25.5266 5.89329C26.0333 6.33329 26.4999 6.79996 26.9399 7.30663L29.1666 5.07996V7.99996C29.1666 8.54663 29.6199 8.99996 30.1666 8.99996C30.7133 8.99996 31.1666 8.54663 31.1666 7.99996V2.66663C31.1666 2.53329 31.1399 2.41329 31.0866 2.27996Z" fill="#F4A84F"/>
</svg>
