<svg width="33" height="32" viewBox="0 0 33 32" fill="none" xmlns="http://www.w3.org/2000/svg">
<path d="M22.7001 5.14661H13.7134V9.17327C13.7134 9.69327 13.2867 10.1066 12.7801 10.1066C12.2734 10.1066 11.8467 9.69327 11.8467 9.17327V5.14661H10.3001C5.03341 5.14661 3.30008 6.71994 3.18008 11.6399C3.16674 11.8799 3.27341 12.1333 3.44674 12.3066C3.62008 12.4933 3.84674 12.5866 4.11341 12.5866C5.98008 12.5866 7.51341 14.1333 7.51341 15.9999C7.51341 17.8666 5.98008 19.4133 4.11341 19.4133C3.86008 19.4133 3.62008 19.5066 3.44674 19.6933C3.27341 19.8666 3.16674 20.1199 3.18008 20.3599C3.30008 25.2799 5.03341 26.8533 10.3001 26.8533H11.8467V22.8266C11.8467 22.3066 12.2734 21.8933 12.7801 21.8933C13.2867 21.8933 13.7134 22.3066 13.7134 22.8266V26.8533H22.7001C28.1667 26.8533 29.8334 25.1866 29.8334 19.7199V12.2799C29.8334 6.81327 28.1667 5.14661 22.7001 5.14661ZM25.1267 15.8666L23.8867 17.0666C23.8334 17.1066 23.8201 17.1866 23.8334 17.2533L24.1267 18.9466C24.1801 19.2533 24.0601 19.5733 23.7934 19.7599C23.5401 19.9466 23.2067 19.9733 22.9267 19.8266L21.3934 19.0266C21.3401 18.9999 21.2601 18.9999 21.2067 19.0266L19.6734 19.8266C19.5534 19.8933 19.4201 19.9199 19.2867 19.9199C19.1134 19.9199 18.9534 19.8666 18.8067 19.7599C18.5534 19.5733 18.4201 19.2666 18.4734 18.9466L18.7667 17.2533C18.7801 17.1866 18.7534 17.1199 18.7134 17.0666L17.4734 15.8666C17.2467 15.6533 17.1667 15.3199 17.2601 15.0266C17.3534 14.7199 17.6067 14.5066 17.9267 14.4666L19.6334 14.2133C19.7001 14.1999 19.7534 14.1599 19.7934 14.1066L20.5534 12.5599C20.7001 12.2799 20.9801 12.1066 21.3001 12.1066C21.6201 12.1066 21.9001 12.2799 22.0334 12.5599L22.7934 14.1066C22.8201 14.1733 22.8734 14.2133 22.9401 14.2133L24.6467 14.4666C24.9667 14.5066 25.2201 14.7333 25.3134 15.0266C25.4334 15.3199 25.3534 15.6399 25.1267 15.8666Z" fill="#F4A84F"/>
</svg>
