<svg width="33" height="32" viewBox="0 0 33 32" fill="none" xmlns="http://www.w3.org/2000/svg">
<path d="M31.1666 20.4933V23.4133C31.1666 26.6667 28.7933 29.7333 25.5666 30.6267C25.34 30.68 25.1 30.68 24.8866 30.6267C23.3133 30.2 21.9266 29.24 20.9533 28C19.9 26.6933 19.2866 25.08 19.2866 23.4133V20.4933C19.2866 19.9333 19.7 19.32 20.2066 19.1067L23.9133 17.5867C24.7533 17.2533 25.6866 17.2533 26.5266 17.5867L27.86 18.1333L30.2466 19.1067C30.7533 19.32 31.1666 19.9333 31.1666 20.4933Z" fill="#7959F5"/>
<path d="M28.4334 14.68L28.1934 16.1067L27.26 15.7334C25.94 15.2 24.5 15.2 23.1534 15.7334L19.4334 17.2667C18.1667 17.8 17.2867 19.12 17.2867 20.4934V23.4134C17.2867 25 17.7267 26.5867 18.54 28H8.74005C6.91338 28 5.19338 26.5467 4.88671 24.7467L3.20671 14.68C2.99338 13.44 3.62005 11.7734 4.60671 10.9867L13.38 3.97338C14.7267 2.89338 16.9134 2.89338 18.26 3.98671L27.0334 10.9867C28.0067 11.7734 28.6467 13.44 28.4334 14.68Z" fill="#7959F5"/>
</svg>
