<svg width="25" height="24" viewBox="0 0 25 24" fill="none" xmlns="http://www.w3.org/2000/svg">
<path d="M18.3733 13.55C17.9533 13.96 17.7133 14.55 17.7733 15.18C17.8633 16.26 18.8533 17.05 19.9333 17.05H21.8333V18.24C21.8333 20.31 20.1433 22 18.0733 22H6.59325C4.52325 22 2.83325 20.31 2.83325 18.24V11.51C2.83325 9.44001 4.52325 7.75 6.59325 7.75H18.0733C20.1433 7.75 21.8333 9.44001 21.8333 11.51V12.95H19.8133C19.2533 12.95 18.7433 13.17 18.3733 13.55Z" stroke="#B3B8C2" stroke-width="1.5" stroke-linecap="round" stroke-linejoin="round"/>
<path d="M2.83325 12.4113V7.84132C2.83325 6.65132 3.56325 5.59128 4.67325 5.17128L12.6133 2.17128C13.8533 1.70128 15.1833 2.62131 15.1833 3.95131V7.7513" stroke="#B3B8C2" stroke-width="1.5" stroke-linecap="round" stroke-linejoin="round"/>
<path d="M22.8921 13.9692V16.0292C22.8921 16.5792 22.4521 17.0292 21.8921 17.0492H19.9321C18.8521 17.0492 17.8621 16.2592 17.7721 15.1792C17.7121 14.5492 17.9521 13.9592 18.3721 13.5492C18.7421 13.1692 19.2521 12.9492 19.8121 12.9492H21.8921C22.4521 12.9692 22.8921 13.4192 22.8921 13.9692Z" stroke="#B3B8C2" stroke-width="1.5" stroke-linecap="round" stroke-linejoin="round"/>
<path d="M7.33325 12H14.3333" stroke="#B3B8C2" stroke-width="1.5" stroke-linecap="round" stroke-linejoin="round"/>
</svg>
